PathFileType	4	(X/Y/Z)	/Users/visionmauri/Downloads/pro-gait-dataset/4_0_1_f_1_Sports2D/4_0_1_f_1_Sports2D_px_person00.trc
DataRate	CameraRate	NumFrames	NumMarkers	Units	OrigDataRate	OrigDataStartFrame	OrigNumFrames
30.0	30.0	13	22	m	30.0	163	654
Frame#	Time	Hip			RHip			RKnee			RAnkle			RBigToe			RSmallToe			RHeel			LHip			LKnee			LAnkle			LBigToe			LSmallToe			LHeel			Neck			Head			Nose			RShoulder			RElbow			RWrist			LShoulder			LElbow			LWrist			
		X1	Y1	Z1	X2	Y2	Z2	X3	Y3	Z3	X4	Y4	Z4	X5	Y5	Z5	X6	Y6	Z6	X7	Y7	Z7	X8	Y8	Z8	X9	Y9	Z9	X10	Y10	Z10	X11	Y11	Z11	X12	Y12	Z12	X13	Y13	Z13	X14	Y14	Z14	X15	Y15	Z15	X16	Y16	Z16	X17	Y17	Z17	X18	Y18	Z18	X19	Y19	Z19	X20	Y20	Z20	X21	Y21	Z21	X22	Y22	Z22
163	5.441653905053599	496.14270666719176	862.032145708466	0.0	514.0156796610054	860.3880450235673	0.0	521.0421526895392	927.4312737403973	0.0	521.6872833279779	995.8049143602118	0.0	527.9692546279143	1016.8760620922741	0.0	534.107976388697	1017.0475228511152	0.0	520.0177059177962	1008.2470609303974	0.0	479.07512048714835	862.0222339405655	0.0	478.4790182203574	931.1949169023918	0.0	481.2600296341564	995.5802477647059	0.0	469.68322823183075	1000.8470643093164	0.0	466.4804730642911	1003.2218880911008	0.0	483.6955068778545	1007.0011675273121	0.0	486.8533758516764	771.4006226427654	0.0	480.20373249902667	731.7925301156216	0.0	478.7869659576074	755.8859344060643	0.0	515.9894828264481	779.8192380268302	0.0	544.0546577459264	817.2932096544156	0.0	556.3378667129053	852.1202102597031	0.0	460.6853590511959	785.3179788502246	0.0	443.48592997989385	830.0168168065442	0.0	434.8003782904962	875.2807793235792	0.0
164	5.475038284839203	495.16151171528577	861.3903870697566	0.0	513.2703003415128	859.2830099480976	0.0	521.971737364386	925.5896295236598	0.0	521.7042786951314	991.7728819738688	0.0	525.4265388995086	1014.8677127011683	0.0	532.6862858252348	1014.5856587017615	0.0	519.8503931789974	1004.6454696489354	0.0	478.1397268170666	861.6509106459381	0.0	478.0252200458886	930.7559241915512	0.0	481.1200739758765	995.5614650127945	0.0	468.8589473851982	1000.8636914673992	0.0	466.3603699831376	1003.5437541853596	0.0	483.7566901327395	1007.576780739179	0.0	484.8881294575339	770.8209331299706	0.0	477.93167988514824	731.3614698312215	0.0	477.3314618944687	754.8773433652718	0.0	514.2115235926927	778.6868529564647	0.0	542.4369755495876	815.2321998824806	0.0	554.5124455927005	851.7291846161895	0.0	458.5990623176834	784.8525165060679	0.0	443.57652799940513	829.7897622015673	0.0	435.7796085305162	874.7099647518608	0.0
165	5.508422664624808	494.4008511012521	860.9330976513979	0.0	512.578272698576	858.6472170462877	0.0	522.5713843794841	924.0043641795342	0.0	521.0855749065348	988.3470030187154	0.0	523.0687134073034	1012.4199153754805	0.0	531.3529267958181	1011.9075979613301	0.0	518.7815391555016	1001.4941673907275	0.0	477.4556625144178	861.4640205237054	0.0	477.838440245282	930.4332677442231	0.0	481.12606013690055	995.4923297291357	0.0	468.48719169174205	1000.6751725543987	0.0	466.2202888706458	1003.5907403364254	0.0	483.7692274599342	1007.7458880059754	0.0	483.1513079819713	770.1970812009607	0.0	476.64792988442446	730.5010677633845	0.0	476.44361283707497	753.7387268483134	0.0	512.2953259787747	777.6012170778322	0.0	540.9845055638209	813.968253404745	0.0	552.9448376226597	851.7587603789714	0.0	456.68856726417016	783.9143363313096	0.0	443.236907330116	829.3390974083364	0.0	437.3086501573575	873.699649076003	0.0
166	5.5418070444104135	493.996966317308	860.0910791072491	0.0	511.87231265310754	857.8015737100687	0.0	522.5765457939041	922.6941664318686	0.0	520.1917098544193	986.0751330356891	0.0	521.2259129786486	1010.552462034777	0.0	530.4194030516073	1009.8866683563543	0.0	517.3774055905403	999.0179799103086	0.0	477.16255284291225	860.793186364488	0.0	477.91793596778433	930.036541698024	0.0	481.1138259684536	995.4538691426411	0.0	468.5279826002942	1000.4820443442072	0.0	466.14540233211665	1003.480648598554	0.0	483.81525803422977	1007.5459040439434	0.0	481.83912773888005	769.4823981885867	0.0	476.04734971041415	729.7129109506592	0.0	476.0922226093757	752.9495661907174	0.0	510.51364174994177	776.509410237012	0.0	539.3406710193046	813.4726479736623	0.0	551.7716972750288	851.9775440392712	0.0	455.52096242642887	782.7254315984612	0.0	442.7187372665612	829.0206761723078	0.0	439.45066210598355	872.6310939497085	0.0
167	5.575191424196018	493.71719514092615	858.8622765660948	0.0	511.11629309319005	856.5320068927288	0.0	522.1686732832944	921.5253533910346	0.0	519.5738653796196	984.5088495390712	0.0	519.3439137692617	1009.2273809808709	0.0	529.4489424980561	1008.4133954811808	0.0	516.4747334729509	997.0094746750378	0.0	477.02660130962306	859.4743291772467	0.0	478.0891459180388	929.4112676868931	0.0	481.0079096911002	995.5078688718074	0.0	468.59236854589125	1000.3842631601001	0.0	466.15649375189196	1003.343172105404	0.0	483.9318878027071	1007.290269792607	0.0	480.9686591725581	768.6781607266678	0.0	475.6242770897675	729.1283682717492	0.0	476.0720216077531	752.4123529360282	0.0	509.2450385312188	775.4587784595458	0.0	537.3243569659135	813.3559216323046	0.0	550.8673959510936	852.2547099429818	0.0	455.0459911704158	781.4307816394486	0.0	442.46788309279583	828.6106193903294	0.0	441.8462057595398	871.244693282885	0.0
168	5.608575803981623	493.37085526508287	857.6454581895476	0.0	510.38097185075935	855.3550848597728	0.0	521.5313447159077	920.5904660292282	0.0	519.2988224945307	983.4837456498473	0.0	517.0809068742991	1007.4664777380372	0.0	527.9203770816571	1006.5598230059331	0.0	516.2588681033766	995.6762683167213	0.0	476.887612531735	858.2153798393542	0.0	478.14391386883614	928.4735188858332	0.0	480.91620888422995	995.3926134529862	0.0	468.6599278745134	1000.374624456179	0.0	466.1735876056341	1003.2961118776468	0.0	483.9110716093727	1006.9456398557435	0.0	480.5536202664613	768.0185622355748	0.0	475.16659602749377	728.5279597682804	0.0	475.834815066244	751.996472250075	0.0	508.6711666618452	774.808417919228	0.0	535.2223736517008	813.3621846394797	0.0	550.1422528801637	852.7648959171992	0.0	454.82602502430154	780.1757229569403	0.0	442.60306841188117	827.6694388530849	0.0	444.0065987489404	869.1708384501296	0.0
169	5.641960183767228	493.01829040112534	856.6298101150653	0.0	509.7838239506443	854.6472655129234	0.0	520.6807022656244	919.950279535198	0.0	519.0284105948889	983.236889520712	0.0	514.7665146047774	1004.7936364916594	0.0	525.9512391845991	1003.9429654732837	0.0	516.2889187594911	995.2856800364377	0.0	476.8201397331865	857.5412441338015	0.0	478.04984314197895	927.358177890944	0.0	480.95926489810023	994.9359962385522	0.0	468.9409608549029	1000.3805686184882	0.0	466.17574154639186	1003.4289050838488	0.0	483.57532841846034	1006.4130693875533	0.0	480.46993528763437	767.630279803561	0.0	474.72334086812907	727.9651576797568	0.0	475.0543223728721	751.8034307820429	0.0	508.5157166731308	774.6533928774245	0.0	533.536109874323	813.3658542276377	0.0	549.4953796220248	853.5763861538256	0.0	454.7034382126417	779.1306041885234	0.0	442.9256467683818	826.1992206941018	0.0	445.90921073761007	866.4180684361254	0.0
170	5.675344563552833	492.8082990775164	855.960977781131	0.0	509.449430962166	854.3306531202892	0.0	519.7115093809574	919.3996608368335	0.0	518.5348530503402	983.3277561994299	0.0	513.1317072216868	1001.7006275598808	0.0	524.3456700596645	1001.2206099743346	0.0	516.2127607756001	995.3192221660009	0.0	476.92664126296944	857.3272790441189	0.0	477.94057417019843	926.5126077924357	0.0	481.0879165560459	994.4505173534299	0.0	469.42146097388337	1000.4049278086704	0.0	466.29097459591736	1003.7162738574325	0.0	483.1508846808252	1005.9167425995342	0.0	480.3817014753626	767.4384260468487	0.0	474.4108058226935	727.7845936364957	0.0	474.1982909763883	751.7795158127976	0.0	508.2888383742523	774.6064474511076	0.0	532.5228372681769	813.3415081407892	0.0	548.6904073442568	854.3174690839332	0.0	454.7551970760901	778.491264071161	0.0	443.23839017388985	824.801013343147	0.0	447.94315972759483	863.6446381402967	0.0
171	5.708728943338437	492.7891087147111	855.9332056560503	0.0	509.3877286885369	854.3608996618084	0.0	518.8011860436674	918.8008804050655	0.0	517.9668164625803	983.111785296574	0.0	512.7558628338718	998.8062225334206	0.0	523.7607924149901	998.9064230617505	0.0	516.1373852448461	995.048087525228	0.0	477.1089932613464	857.3790026870545	0.0	477.96751885935123	926.2386669542183	0.0	481.1407530575563	994.2570512780403	0.0	469.7686478495609	1000.4613649893778	0.0	466.527733158817	1003.9575899104115	0.0	482.9132095086717	1005.6846167930769	0.0	480.1337740819853	767.5127413963253	0.0	474.40126463076274	728.0075730232453	0.0	474.0150856341954	751.8397613787022	0.0	507.8588237507341	774.462960117838	0.0	532.0933393520465	813.2963561232203	0.0	547.6217630589296	854.6667149251326	0.0	454.8814941012406	778.4338736587093	0.0	443.5127409287852	824.0205542170285	0.0	450.3986702992874	861.4139477330449	0.0
172	5.742113323124043	492.82604359952643	856.5909396058283	0.0	509.3828459935201	854.8647171540928	0.0	517.950503844782	918.1888995269768	0.0	517.6517507668796	982.4534855863473	0.0	513.539677192907	996.1372587460065	0.0	524.0293226909646	996.526305417545	0.0	516.3063646041973	994.1895380294374	0.0	477.077753595254	857.7482062793339	0.0	478.1083358919294	926.3375130645434	0.0	481.09092360065983	994.1825454413345	0.0	469.80441989925885	1000.3312263269364	0.0	466.70878985923696	1004.0151944527356	0.0	482.80400271977703	1005.6426483816638	0.0	479.98688723637457	768.0303734781016	0.0	474.8961390250448	728.2866248056288	0.0	474.5880902993353	752.2949573263583	0.0	507.45576157464666	774.5097990705583	0.0	531.9553926161399	813.1999743297059	0.0	546.6191076898092	854.6924983254734	0.0	454.88638222784795	778.9945486448884	0.0	443.8812282784548	823.8776575941404	0.0	453.12620100549077	859.784004529391	0.0
173	5.7754977029096475	492.74549870028284	857.4636781621285	0.0	509.25032908974487	855.5347149838177	0.0	517.0816736639649	917.5007670192222	0.0	517.7445256213917	981.244596350622	0.0	514.7007079092124	993.3095791296857	0.0	524.4704643245725	993.4976692371636	0.0	516.7418194695423	992.7147982218053	0.0	476.730936989677	858.2719861776745	0.0	478.1838030135857	926.4151364977323	0.0	481.0950164292116	993.8823335810223	0.0	469.7563887267355	999.8260035172092	0.0	466.7853629944635	1003.9996416585706	0.0	482.7613201875197	1005.6524610296051	0.0	480.24926730141414	768.9105214656452	0.0	475.852193314947	728.4858511198435	0.0	475.44307208024554	753.3121173560769	0.0	507.325248271123	774.9649274943177	0.0	531.8913573204583	813.1513865298353	0.0	546.1190469361089	854.6046653692778	0.0	454.8094180888164	779.8669563877917	0.0	444.5560964157341	824.1913593596134	0.0	455.7027217571364	858.6983253999935	0.0
174	5.808882082695252	492.6597511897213	858.0648669201902	0.0	509.08110491230826	855.8152830665612	0.0	516.2901210246241	916.6226372421141	0.0	518.1121592868207	979.0470257636281	0.0	515.4047745271367	990.5290259857655	0.0	524.5533461619995	990.2867139286765	0.0	517.2734088182185	990.4181306068068	0.0	476.4172110314062	858.5554166094041	0.0	478.1479031482855	926.4199689177359	0.0	481.25515102875437	993.5964732438721	0.0	469.73159752109103	999.2628321537042	0.0	466.85558831161467	1004.0233005514651	0.0	483.01951564200243	1005.6994434473362	0.0	480.8566419821273	769.8247785029433	0.0	476.8317460701823	728.9404245843193	0.0	476.1937049851323	754.4029947703928	0.0	507.66753344580434	775.6488554042971	0.0	531.9657282762299	813.4333674352254	0.0	546.1400568881713	854.544965060218	0.0	454.952980613425	780.505908951618	0.0	445.6353117377679	824.9233995558094	0.0	457.99772602112455	857.7257859193214	0.0
175	5.842266462480858	492.7822756960071	858.4116155295937	0.0	509.00927737817216	855.9045400010127	0.0	515.7644260461543	915.6484357746115	0.0	518.5649828132332	975.6068689799329	0.0	515.5001213154314	988.5382113308466	0.0	524.2304290354157	987.7899264425694	0.0	517.8267535005219	986.8224151080275	0.0	476.56811177520547	858.6767277786134	0.0	478.0944188029057	926.6499970493052	0.0	481.4567614438166	993.936229059564	0.0	469.50143566894656	999.059019116758	0.0	466.92180125126714	1003.988975926515	0.0	483.72890455287217	1005.7741278691234	0.0	481.5983581990121	770.5622183177297	0.0	477.4908923815429	729.9292093102357	0.0	476.61176712503834	755.2172486357368	0.0	508.51276012814185	776.3855154968669	0.0	532.3627399327471	814.1933380776105	0.0	546.4980566913356	854.6755223243049	0.0	455.6317583044991	780.7662912198589	0.0	447.0283373792118	825.965665692065	0.0	460.1470376635601	855.9537657315631	0.0
